<svg width="18" height="20" viewBox="0 0 18 20" fill="none" xmlns="http://www.w3.org/2000/svg">
<path d="M1.48625 5.33821L9.125 9.75696L16.7637 5.33821M9.125 18.5682V9.74821M17 13.2482V6.24821C16.9997 5.94132 16.9187 5.63991 16.7651 5.37422C16.6115 5.10853 16.3908 4.8879 16.125 4.73446L10 1.23446C9.73397 1.08086 9.43219 1 9.125 1C8.81781 1 8.51603 1.08086 8.25 1.23446L2.125 4.73446C1.85923 4.8879 1.63848 5.10853 1.4849 5.37422C1.33132 5.63991 1.25031 5.94132 1.25 6.24821V13.2482C1.25031 13.5551 1.33132 13.8565 1.4849 14.1222C1.63848 14.3879 1.85923 14.6085 2.125 14.762L8.25 18.262C8.51603 18.4155 8.81781 18.4964 9.125 18.4964C9.43219 18.4964 9.73397 18.4155 10 18.262L16.125 14.762C16.3908 14.6085 16.6115 14.3879 16.7651 14.1222C16.9187 13.8565 16.9997 13.5551 17 13.2482Z" stroke="#0661E9" stroke-width="2" stroke-linecap="round" stroke-linejoin="round"/>
</svg>
