<svg width="20" height="20" viewBox="0 0 20 20" fill="none" xmlns="http://www.w3.org/2000/svg">
<path d="M7.26442 7.25602C7.46523 6.68515 7.86161 6.20378 8.38334 5.89716C8.90506 5.59053 9.51847 5.47845 10.1149 5.58076C10.7114 5.68306 11.2524 5.99316 11.6421 6.45612C12.0318 6.91908 12.2451 7.50503 12.2442 8.11019C12.2442 9.81852 9.68171 10.6727 9.68171 10.6727M9.75004 14.0894H9.75858M18.2917 9.81852C18.2917 14.536 14.4675 18.3602 9.75004 18.3602C5.03261 18.3602 1.20837 14.536 1.20837 9.81852C1.20837 5.10109 5.03261 1.27686 9.75004 1.27686C14.4675 1.27686 18.2917 5.10109 18.2917 9.81852Z" stroke="#20262F" stroke-width="2" stroke-linecap="round" stroke-linejoin="round"/>
</svg>
