<svg width="20" height="20" viewBox="0 0 20 20" fill="none" xmlns="http://www.w3.org/2000/svg">
<circle cx="10" cy="10" r="9.5" fill="#F4F4F4" stroke="#20262F"/>
<g clip-path="url(#clip0_1_2007)">
<path d="M9.58331 5.6665H6.66665C6.44563 5.6665 6.23367 5.7543 6.07739 5.91058C5.92111 6.06686 5.83331 6.27882 5.83331 6.49984V12.3332C5.83331 12.5542 5.92111 12.7661 6.07739 12.9224C6.23367 13.0787 6.44563 13.1665 6.66665 13.1665H12.5C12.721 13.1665 12.933 13.0787 13.0892 12.9224C13.2455 12.7661 13.3333 12.5542 13.3333 12.3332V9.4165" stroke="#414141" stroke-linecap="round" stroke-linejoin="round"/>
<path d="M12.7083 5.0416C12.8741 4.87584 13.0989 4.78271 13.3333 4.78271C13.5677 4.78271 13.7926 4.87584 13.9583 5.0416C14.1241 5.20736 14.2172 5.43218 14.2172 5.6666C14.2172 5.90102 14.1241 6.12584 13.9583 6.2916L9.99998 10.2499L8.33331 10.6666L8.74998 8.99993L12.7083 5.0416Z" stroke="#414141" stroke-linecap="round" stroke-linejoin="round"/>
</g>
<defs>
<clipPath id="clip0_1_2007">
<rect width="10" height="10" fill="white" transform="translate(5 4)"/>
</clipPath>
</defs>
</svg>
