<svg width="19" height="16" viewBox="0 0 19 16" fill="none" xmlns="http://www.w3.org/2000/svg">
<path d="M9.5 0.151855C4.67525 0.151855 0.75 3.70327 0.75 8.06852V11.3484C0.75 12.1591 1.53487 12.8185 2.5 12.8185H3.375C3.60706 12.8185 3.82962 12.7351 3.99372 12.5866C4.15781 12.4382 4.25 12.2368 4.25 12.0269V7.95531C4.25 7.74535 4.15781 7.54399 3.99372 7.39552C3.82962 7.24705 3.60706 7.16365 3.375 7.16365H2.5805C3.067 4.0999 5.98075 1.73519 9.5 1.73519C13.0192 1.73519 15.933 4.0999 16.4195 7.16365H15.625C15.3929 7.16365 15.1704 7.24705 15.0063 7.39552C14.8422 7.54399 14.75 7.74535 14.75 7.95531V12.8185C14.75 13.6917 13.9651 14.4019 13 14.4019H11.25V13.6102H7.75V15.9852H13C14.9303 15.9852 16.5 14.5649 16.5 12.8185C17.4651 12.8185 18.25 12.1591 18.25 11.3484V8.06852C18.25 3.70327 14.3247 0.151855 9.5 0.151855Z" fill="#20262F"/>
</svg>
