<svg width="17" height="17" viewBox="0 0 17 17" fill="none" xmlns="http://www.w3.org/2000/svg">
<path d="M7.4211 0.0540295C6.14036 0.221708 4.87957 0.684818 3.83025 1.37948C2.22234 2.44543 1.01741 4.01442 0.422923 5.82693C0.123685 6.74118 0 7.5117 0 8.4978C0 9.83523 0.279289 11.0489 0.853826 12.2266C2.14653 14.8775 4.65614 16.6342 7.62059 16.9655C8.27094 17.0374 9.39208 16.9935 10.0664 16.8657C12.7475 16.3587 15.0377 14.5821 16.2027 12.1069C16.9808 10.458 17.2002 8.50978 16.8132 6.70125C16.5499 5.47162 16.0272 4.34977 15.2292 3.28781C14.93 2.89257 14.0841 2.0462 13.6851 1.74278C12.4363 0.800594 10.9561 0.205738 9.43597 0.0340691C8.96118 -0.0178318 7.8919 -0.00984764 7.4211 0.0540295ZM8.72977 2.05818C9.04497 2.55722 9.33223 3.08421 9.56365 3.60321C9.7791 4.08229 10.0943 4.94064 10.0943 5.04843C10.0943 5.09634 9.83495 5.10432 8.49836 5.10432C7.1458 5.10432 6.90242 5.09634 6.90242 5.04843C6.90242 4.90471 7.23757 4.01442 7.50888 3.42755C7.79615 2.81672 8.42255 1.75077 8.49836 1.75077C8.51432 1.75077 8.61805 1.8905 8.72977 2.05818ZM6.26405 2.08612C6.26405 2.09411 6.14834 2.33764 6.0087 2.63307C5.70148 3.27584 5.44214 3.95453 5.25462 4.60528L5.11497 5.08436L3.87413 5.09634C3.17192 5.10033 2.63329 5.08835 2.63329 5.06839C2.63329 5.00052 3.02829 4.43361 3.32354 4.08229C3.98984 3.28781 4.97932 2.57319 5.98476 2.16597C6.20819 2.07415 6.26405 2.05818 6.26405 2.08612ZM11.5227 2.40551C12.4403 2.86862 13.2423 3.52336 13.8607 4.32183C14.1041 4.63323 14.3634 5.02448 14.3634 5.08037C14.3634 5.09235 13.8048 5.10033 13.1226 5.09634L11.8778 5.08436L11.7501 4.64521C11.4907 3.78286 11.2194 3.08021 10.8763 2.39353C10.7965 2.23783 10.7327 2.10209 10.7327 2.09012C10.7327 2.05818 11.2075 2.24582 11.5227 2.40551ZM4.77185 6.92882C4.64417 7.7153 4.64417 9.13258 4.76786 10.0428L4.7918 10.2145H3.35545C2.02285 10.2145 1.91911 10.2105 1.89916 10.1426C1.83134 9.92705 1.75553 9.45197 1.71563 9.00483C1.65578 8.34609 1.73957 7.36797 1.89916 6.84897C1.91911 6.78509 2.02285 6.7811 3.35944 6.7811H4.79579L4.77185 6.92882ZM10.4933 6.80905C10.4933 6.82901 10.5212 7.05657 10.5531 7.32006C10.585 7.58356 10.609 8.11454 10.609 8.4978C10.609 8.88106 10.585 9.41204 10.5531 9.67554C10.5212 9.93903 10.4933 10.1666 10.4933 10.1826C10.4933 10.2025 9.59556 10.2145 8.49836 10.2145C7.40115 10.2145 6.50344 10.2025 6.50344 10.1826C6.50344 10.1666 6.47551 9.93903 6.44359 9.67554C6.41167 9.41204 6.38773 8.88106 6.38773 8.4978C6.38773 8.11454 6.41167 7.58356 6.44359 7.32006C6.47551 7.05657 6.50344 6.82901 6.50344 6.80905C6.50344 6.79308 7.40115 6.7811 8.49836 6.7811C9.59556 6.7811 10.4933 6.79308 10.4933 6.80905ZM15.0976 6.84897C15.2332 7.31208 15.3369 8.30218 15.301 8.79722C15.2731 9.19247 15.1813 9.83124 15.1175 10.0628L15.0776 10.2145H13.6373H12.2009L12.2249 10.0428C12.3525 9.16053 12.3525 7.84705 12.2249 6.94878L12.2009 6.7811H13.6373C14.9739 6.7811 15.0776 6.78509 15.0976 6.84897ZM5.25462 12.3903C5.44214 13.0411 5.70148 13.7198 6.0087 14.3625C6.14834 14.658 6.26006 14.9055 6.25208 14.9135C6.22814 14.9334 5.74138 14.7258 5.34239 14.5222C4.37286 14.0232 3.49111 13.2367 2.86869 12.3185C2.74102 12.1228 2.63329 11.9472 2.63329 11.9272C2.63329 11.9033 3.11207 11.8953 3.87413 11.8993L5.11497 11.9112L5.25462 12.3903ZM10.0943 11.9472C10.0943 12.027 9.84692 12.7217 9.67137 13.1449C9.41602 13.7517 8.82154 14.8496 8.57417 15.169L8.49836 15.2648L8.42255 15.169C8.17119 14.8416 7.58468 13.7677 7.32535 13.1489C7.14979 12.7217 6.90242 12.027 6.90242 11.9472C6.90242 11.8993 7.15378 11.8913 8.49836 11.8913C9.84293 11.8913 10.0943 11.8993 10.0943 11.9472ZM14.3634 11.9232C14.3634 11.9831 14.0722 12.4143 13.8128 12.7337C13.1984 13.5082 12.4204 14.135 11.5227 14.5901C11.2075 14.7498 10.7327 14.9374 10.7327 14.9055C10.7327 14.8935 10.8204 14.7099 10.9282 14.4943C11.1915 13.9673 11.5346 13.093 11.7102 12.4901C11.79 12.2147 11.8618 11.9671 11.8738 11.9392C11.8817 11.9033 12.169 11.8913 13.1266 11.8913C13.8048 11.8913 14.3634 11.9072 14.3634 11.9232Z" fill="#2A2A2A"/>
</svg>
