<svg width="17" height="20" viewBox="0 0 17 20" fill="none" xmlns="http://www.w3.org/2000/svg">
<path d="M10.0417 1.56836H3.20833C2.75526 1.56836 2.32073 1.74834 2.00036 2.06872C1.67998 2.38909 1.5 2.82361 1.5 3.27669V16.9434C1.5 17.3964 1.67998 17.831 2.00036 18.1513C2.32073 18.4717 2.75526 18.6517 3.20833 18.6517H13.4583C13.9114 18.6517 14.3459 18.4717 14.6663 18.1513C14.9867 17.831 15.1667 17.3964 15.1667 16.9434V6.69336M10.0417 1.56836L15.1667 6.69336M10.0417 1.56836L10.0417 6.69336H15.1667M11.75 10.9642H4.91667M11.75 14.3809H4.91667M6.625 7.54753H4.91667" stroke="#20262F" stroke-width="2" stroke-linecap="round" stroke-linejoin="round"/>
</svg>
