<svg width="17" height="20" viewBox="0 0 17 20" fill="none" xmlns="http://www.w3.org/2000/svg">
<path d="M14.625 8.23519H15.5C15.7321 8.23519 15.9546 8.33177 16.1187 8.50367C16.2828 8.67558 16.375 8.90874 16.375 9.15186V18.3185C16.375 18.5616 16.2828 18.7948 16.1187 18.9667C15.9546 19.1386 15.7321 19.2352 15.5 19.2352H1.5C1.26794 19.2352 1.04538 19.1386 0.881282 18.9667C0.717187 18.7948 0.625 18.5616 0.625 18.3185V9.15186C0.625 8.90874 0.717187 8.67558 0.881282 8.50367C1.04538 8.33177 1.26794 8.23519 1.5 8.23519H2.375V7.31852C2.375 5.61672 3.02031 3.98461 4.16897 2.78125C5.31763 1.5779 6.87555 0.901855 8.5 0.901855C10.1245 0.901855 11.6824 1.5779 12.831 2.78125C13.9797 3.98461 14.625 5.61672 14.625 7.31852V8.23519ZM12.875 8.23519V7.31852C12.875 6.10295 12.4141 4.93716 11.5936 4.07762C10.7731 3.21807 9.66032 2.73519 8.5 2.73519C7.33968 2.73519 6.22688 3.21807 5.40641 4.07762C4.58594 4.93716 4.125 6.10295 4.125 7.31852V8.23519H12.875ZM7.625 11.9019V15.5685H9.375V11.9019H7.625Z" fill="#20262F"/>
</svg>
